<?xml version="1.0" encoding="utf-8"?>
<!-- Generator: Adobe Illustrator 28.3.0, SVG Export Plug-In . SVG Version: 6.00 Build 0)  -->
<svg version="1.1" id="Layer_1" xmlns="http://www.w3.org/2000/svg" xmlns:xlink="http://www.w3.org/1999/xlink" x="0px" y="0px"
	 viewBox="0 0 256 256" style="enable-background:new 0 0 256 256;" xml:space="preserve">
<style type="text/css">
	.st0{fill:#000065;}
	.st1{fill:#FFFFFF;}
</style>
<rect class="st0" width="256" height="256"/>
<g>
	<g>
		<path class="st1" d="M45,195.4L153,56.1l19.2,2.6c17.3,2.3,30.6,17.3,29.5,34.6c-1.2,19-18.3,32.8-36.9,30.4l-17.2-2.3l2.8-21.2
			l16.8,2.2c5.4,0.7,10.9-2.3,12.6-7.5c2.4-7-2.3-14-9.2-14.9l-8.2-1.1L77.3,188.7l71.5-10.8l3.3,21.1l-96.5,14.5
			C45.6,215.1,38.8,203.5,45,195.4z"/>
	</g>
	<g>
		<path class="st1" d="M156.3,78.1l-10.2-1.3c-11.7-1.5-19.9-12.3-18.4-24l0,0l31.4,4.1L156.3,78.1z"/>
	</g>
	<g>
		<polygon class="st1" points="196,96.6 198,81.6 210,90.8 222,100 208,105.8 194,111.6 		"/>
	</g>
	<g>
		<polygon class="st1" points="132.9,240.7 102.8,189.1 125.8,186.2 157.6,240.7 		"/>
	</g>
	<g>
		<path class="st1" d="M152.1,199.1l-3.5-21.1c12.5-2.1,22-11.9,23.7-24.5c2-15.7-9-30.1-24.7-32.2c-10-1.3-20.1,2.8-26.4,10.8
			l-16.8-13.2c10.9-13.9,28.5-21.1,46-18.7c27.3,3.6,46.7,28.8,43.1,56.2C190.6,178.2,173.9,195.5,152.1,199.1z"/>
	</g>
	<path class="st1" d="M148.7,77.1l20.1,2.7c-4-0.5-7.9,1.1-10.4,4.3l0,0c-5.3,6.9-1.2,17,7.5,18.1l-28.2-3.7L148.7,77.1z"/>
	<g>
		<polygon class="st1" points="141.8,256 111.7,204.3 134.7,201.5 166.5,256 		"/>
	</g>
</g>
</svg>
